<svg width="648" height="48" viewBox="0 0 648 48" fill="none" xmlns="http://www.w3.org/2000/svg">
<g filter="url(#filter0_d_618_88)">
<g filter="url(#filter1_d_618_88)">
<path d="M18.5358 5.00918C19.7974 5.00918 20.8944 5.00927 21.8268 5.10211C22.6841 5.15129 23.5384 5.24429 24.3865 5.38067C25.1727 5.51065 25.9771 5.67779 26.8364 5.88204L26.4708 8.18442L24.0025 7.90586L21.5891 7.75717C20.7298 7.75717 19.7608 7.75717 18.5358 7.75717C16.6736 7.65933 14.824 8.11779 13.2154 9.07564C11.8049 10.118 10.822 11.6515 10.4546 13.3833C9.35765 18.7603 9.35765 24.3087 10.4546 29.6858C10.822 31.4176 11.8049 32.9511 13.2154 33.9934C14.824 34.9513 16.6736 35.4097 18.5358 35.3119C20.3642 35.3119 21.9913 35.3117 23.2895 35.1632C24.5876 35.0147 25.8674 34.9404 27.1107 34.7548L27.4581 37.02C26.1728 37.3572 24.8652 37.5992 23.5455 37.7441C21.8817 37.9242 20.2089 38.0048 18.5358 37.9855C16.0855 38.0986 13.6497 37.5475 11.4784 36.3887C9.60964 35.206 8.241 33.3593 7.63892 31.2083C6.07902 24.8563 6.07902 18.2127 7.63892 11.8608C8.241 9.70976 9.60964 7.86309 11.4784 6.68033C13.6427 5.4958 16.0789 4.91889 18.5358 5.00918Z" fill="white"/>
</g>
<g filter="url(#filter2_d_618_88)">
<path d="M41.4692 14.0138C43.4799 13.9179 45.4838 14.3214 47.3177 15.1913C48.7971 15.9872 49.9306 17.3459 50.4864 18.9895C51.7654 23.5715 51.7654 28.4418 50.4864 33.0238C49.9306 34.6674 48.7971 36.0261 47.3177 36.822C43.5625 38.3927 39.3759 38.3927 35.6208 36.822C34.1413 36.0208 33.0036 34.6648 32.434 33.0238C31.1301 28.4456 31.1301 23.5677 32.434 18.9895C33.0036 17.3485 34.1413 15.9925 35.6208 15.1913C37.4547 14.3214 39.4585 13.9179 41.4692 14.0138ZM41.4692 16.5966C40.0297 16.5239 38.5948 16.817 37.2865 17.4511C36.2261 18.0823 35.4455 19.1263 35.1138 20.3568C34.2325 24.0988 34.2325 28.0095 35.1138 31.7515C35.275 32.3648 35.5499 32.9388 35.9227 33.4406C36.2956 33.9424 36.759 34.3623 37.2865 34.6762C38.5948 35.3104 40.0297 35.6035 41.4692 35.5308C42.9023 35.596 44.3297 35.3031 45.6338 34.6762C46.1659 34.3659 46.6338 33.9474 47.0099 33.4452C47.3861 32.9431 47.6631 32.3673 47.8247 31.7515C48.7059 28.0095 48.7059 24.0988 47.8247 20.3568C47.661 19.7445 47.383 19.1723 47.0069 18.6735C46.6308 18.1748 46.1641 17.7593 45.6338 17.4511C44.3297 16.8242 42.9023 16.5314 41.4692 16.5966Z" fill="white"/>
</g>
<g filter="url(#filter3_d_618_88)">
<path d="M60.7633 14.5595L60.9743 18.8126L61.2029 19.5028V37H58.4419V14.6156L60.7633 14.5595ZM70.6995 14.0001C74.5215 14.0001 76.4325 16.0518 76.4325 20.1557V36.944H73.6715V20.8832C73.7879 19.6776 73.4811 18.4689 72.8098 17.4883C72.4353 17.1235 71.9932 16.8454 71.5118 16.672C71.0303 16.4985 70.5201 16.4335 70.0136 16.4809C68.5596 16.4869 67.1268 16.8508 65.8281 17.5441C64.1416 18.4443 62.5089 19.4535 60.9391 20.566L60.7984 18.3836C62.3466 17.0724 64.0419 15.9696 65.8457 15.1006C67.3707 14.3696 69.0259 13.9943 70.6995 14.0001Z" fill="white"/>
</g>
<g filter="url(#filter4_d_618_88)">
<path d="M86.3747 5V14.206C86.3747 15.1082 86.3747 16.0472 86.2821 16.8021C86.2351 17.5558 86.1423 18.3058 86.0042 19.0483L86.3192 19.7296V37H83.429V5.01843L86.3747 5ZM96.3978 14.206C100.412 14.206 102.419 16.2312 102.419 20.2818V36.8526H99.4918V20.9999C99.604 19.8108 99.2818 18.6214 98.584 17.649C98.1991 17.2859 97.7402 17.0092 97.2383 16.8376C96.7365 16.6661 96.2034 16.6038 95.6752 16.6547C94.1346 16.6672 92.6159 17.0195 91.2288 17.6859C89.4383 18.5668 87.7112 19.5696 86.0597 20.687L85.9671 18.5327C87.603 17.2748 89.3738 16.2004 91.2473 15.3291C92.8686 14.6167 94.6252 14.2589 96.3978 14.2797V14.206Z" fill="white"/>
</g>
<g filter="url(#filter5_d_618_88)">
<path d="M118.258 14.0378C120.678 13.8336 123.095 14.4609 125.142 15.8244C125.885 16.4692 126.474 17.2859 126.863 18.2096C127.252 19.1334 127.429 20.1389 127.381 21.1466C127.513 22.8109 127.116 24.4741 126.252 25.8795C125.772 26.4629 125.163 26.9163 124.478 27.2009C123.793 27.4855 123.052 27.593 122.319 27.5141H109.572V25.1001H121.627C122.067 25.1588 122.513 25.0843 122.914 24.8855C123.314 24.6867 123.651 24.3719 123.885 23.9787C124.309 23.1034 124.497 22.1248 124.431 21.1466C124.477 20.4778 124.364 19.8076 124.104 19.1946C123.843 18.5816 123.443 18.0443 122.938 17.63C121.536 16.8103 119.934 16.4402 118.331 16.5657C116.901 16.4962 115.477 16.7896 114.179 17.421C113.656 17.7243 113.196 18.1323 112.824 18.6215C112.452 19.1107 112.176 19.6716 112.012 20.2721C111.535 22.046 111.32 23.8856 111.375 25.7273C111.299 27.7292 111.558 29.7295 112.14 31.6386C112.341 32.2707 112.66 32.8551 113.079 33.3575C113.498 33.8599 114.008 34.2706 114.58 34.5659C115.969 35.1681 117.466 35.4471 118.969 35.3833C120.225 35.3833 121.554 35.3832 122.92 35.2311C124.286 35.0791 125.488 34.9841 126.562 34.832L126.89 36.847C126.105 37.1432 125.294 37.3533 124.468 37.4741C123.484 37.6262 122.483 37.7401 121.445 37.8352C120.407 37.9302 119.478 37.9874 118.659 37.9874C116.618 38.0793 114.584 37.6691 112.723 36.7899C111.224 35.9796 110.06 34.6285 109.445 32.9883C108.073 28.4026 108.073 23.4893 109.445 18.9036C110.005 17.2596 111.145 15.9002 112.632 15.1021C114.406 14.307 116.33 13.9432 118.258 14.0378Z" fill="white"/>
</g>
<g filter="url(#filter6_d_618_88)">
<path d="M142.328 14.0113C142.914 14.0113 143.589 14.0113 144.352 14.0113C145.138 14.0679 145.92 14.1693 146.696 14.3151C147.444 14.4417 148.181 14.6389 148.897 14.9042L148.507 16.8042C147.583 16.6902 146.589 16.5951 145.506 16.5191C144.423 16.4431 143.5 16.5191 142.772 16.5191C141.259 16.455 139.751 16.74 138.351 17.355C137.794 17.6375 137.297 18.0372 136.888 18.5302C136.479 19.0231 136.168 19.5992 135.972 20.224C134.997 23.9524 134.997 27.8953 135.972 31.6238C136.165 32.255 136.475 32.8381 136.884 33.3377C137.292 33.8373 137.792 34.2431 138.351 34.5308C139.754 35.1358 141.261 35.4145 142.772 35.3479C143.216 35.3479 143.784 35.3479 144.547 35.3479C145.311 35.3479 146.003 35.3477 146.784 35.1957C147.566 35.0437 148.329 35.0437 149.039 34.9297L149.394 36.9438C148.274 37.3023 147.128 37.5628 145.968 37.7228C144.791 37.8926 143.605 37.9814 142.417 37.9888C140.417 38.0739 138.426 37.6711 136.593 36.8109C135.119 36.0198 133.978 34.6629 133.397 33.0109C132.072 28.4252 132.072 23.5179 133.397 18.9321C133.965 17.2721 135.11 15.9108 136.593 15.1322C138.404 14.3104 140.363 13.9277 142.328 14.0113Z" fill="white"/>
</g>
<g filter="url(#filter7_d_618_88)">
<path d="M157.516 5.00857C157.633 4.98981 157.753 5.00192 157.866 5.04426C157.979 5.0866 158.081 5.15792 158.165 5.25244C158.249 5.34697 158.313 5.46218 158.35 5.58897C158.388 5.71577 158.399 5.8508 158.382 5.98316V8.73808C158.399 8.87044 158.388 9.00524 158.35 9.13204C158.313 9.25883 158.249 9.37404 158.165 9.46857C158.081 9.56309 157.979 9.63441 157.866 9.67675C157.753 9.7191 157.633 9.73143 157.516 9.71267H156.283C156.164 9.73471 156.042 9.72472 155.927 9.68385C155.812 9.64297 155.707 9.5722 155.621 9.47726C155.535 9.38232 155.47 9.26598 155.432 9.13753C155.393 9.00908 155.382 8.87224 155.399 8.73808V5.98316C155.386 5.84979 155.399 5.71443 155.439 5.58783C155.479 5.46123 155.544 5.34671 155.629 5.25267C155.714 5.15864 155.817 5.08771 155.931 5.0454C156.044 5.00309 156.164 4.99053 156.283 5.00857H157.516ZM158.182 14.5103V37H155.616V14.5103H158.182Z" fill="white"/>
</g>
<g filter="url(#filter8_d_618_88)">
<path d="M167.716 14.5723L167.951 18.823L168.222 19.5128V37H165.386V14.6283L167.716 14.5723ZM177.054 14.0132C177.82 13.9636 178.589 14.0751 179.312 14.3411C180.035 14.6071 180.699 15.0219 181.262 15.5605C181.793 16.1878 182.198 16.9181 182.452 17.7088C182.707 18.4995 182.806 19.3346 182.743 20.1652V36.944H179.998V20.8924C180.116 19.6819 179.773 18.4717 179.041 17.5181C178.652 17.1525 178.196 16.8727 177.699 16.6963C177.202 16.5199 176.675 16.4507 176.151 16.4926C175.321 16.4955 174.497 16.6404 173.713 16.9214C172.809 17.2451 171.947 17.6834 171.148 18.2263C170.245 18.8415 169.161 19.6059 167.897 20.5753L167.716 18.4316C169.133 17.1023 170.719 15.9794 172.43 15.0944C173.871 14.3733 175.453 14.0035 177.054 14.0132ZM191.612 14.0132C192.388 13.9594 193.167 14.0706 193.9 14.34C194.633 14.6093 195.305 15.0311 195.874 15.5791C196.934 16.8469 197.466 18.4949 197.355 20.1652V36.944H194.52V20.8924C194.592 19.701 194.26 18.5208 193.58 17.5552C193.202 17.1674 192.745 16.8712 192.242 16.6874C191.739 16.5037 191.203 16.4372 190.672 16.4926C189.823 16.4893 188.979 16.6407 188.18 16.94C187.292 17.2906 186.444 17.7407 185.651 18.2823C184.748 18.8789 183.701 19.6432 182.472 20.5753L182.292 18.4316C183.708 17.0934 185.301 15.9697 187.024 15.0944C188.454 14.3801 190.023 14.0105 191.612 14.0132Z" fill="white"/>
</g>
<g filter="url(#filter9_d_618_88)">
<path d="M213.209 14.0378C215.628 13.8336 218.046 14.4609 220.092 15.8244C220.835 16.4692 221.425 17.2859 221.814 18.2096C222.202 19.1334 222.38 20.1389 222.332 21.1466C222.464 22.8109 222.067 24.4741 221.203 25.8795C220.722 26.4629 220.113 26.9163 219.428 27.2009C218.744 27.4855 218.003 27.593 217.27 27.5141H204.523V25.1001H216.578C217.017 25.1588 217.464 25.0843 217.864 24.8855C218.265 24.6867 218.602 24.3719 218.836 23.9787C219.259 23.1034 219.448 22.1248 219.382 21.1466C219.427 20.4778 219.314 19.8076 219.054 19.1946C218.794 18.5816 218.394 18.0443 217.889 17.63C216.487 16.8103 214.884 16.4402 213.282 16.5657C211.852 16.4962 210.427 16.7896 209.13 17.421C208.607 17.7243 208.146 18.1323 207.775 18.6215C207.403 19.1107 207.127 19.6716 206.963 20.2721C206.476 22.0441 206.261 23.8852 206.326 25.7273C206.25 27.7292 206.509 29.7295 207.09 31.6386C207.291 32.2707 207.611 32.8551 208.03 33.3575C208.448 33.8599 208.959 34.2706 209.53 34.5659C210.919 35.1681 212.417 35.4471 213.919 35.3833C215.175 35.3833 216.505 35.3832 217.87 35.2311C219.236 35.0791 220.438 34.9841 221.512 34.832L221.84 36.847C221.056 37.1432 220.244 37.3533 219.418 37.4741C218.435 37.6262 217.433 37.7401 216.395 37.8352C215.357 37.9302 214.429 37.9874 213.609 37.9874C211.568 38.0793 209.535 37.6691 207.673 36.7899C206.175 35.9796 205.01 34.6285 204.395 32.9883C203.023 28.4026 203.023 23.4893 204.395 18.9036C204.955 17.2648 206.086 15.907 207.564 15.1021C209.345 14.3099 211.274 13.9462 213.209 14.0378Z" fill="white"/>
</g>
<g filter="url(#filter10_d_618_88)">
<path d="M230.804 14.5595L231.027 18.8126L231.268 19.5028V37H228.354V14.6156L230.804 14.5595ZM241.311 14.0001C245.32 14.0001 247.344 16.0518 247.344 20.1557V36.944H244.355V20.8832C244.478 19.6776 244.154 18.4689 243.445 17.4883C243.051 17.1215 242.585 16.8421 242.076 16.6686C241.568 16.495 241.029 16.4311 240.494 16.4809C238.959 16.4869 237.447 16.8508 236.076 17.5441C234.296 18.4443 232.572 19.4535 230.915 20.566L230.767 18.3836C232.401 17.0724 234.19 15.9697 236.094 15.1006C237.711 14.3692 239.464 13.994 241.236 14.0001H241.311Z" fill="white"/>
</g>
<g filter="url(#filter11_d_618_88)">
<path d="M265.334 14.1507V16.6711H252.341V14.3851L256.251 14.1507H265.334ZM258.563 7.05867V31.7929C258.529 32.2646 258.576 32.7396 258.702 33.1895C258.828 33.6393 259.029 34.0548 259.295 34.4108C259.913 35.0128 260.707 35.3074 261.508 35.2314H264.835L265.151 37.5171C264.686 37.6545 264.213 37.7589 263.737 37.8298C263.205 37.8298 262.689 37.9667 262.19 37.9863H260.992C260.322 38.0403 259.649 37.9347 259.015 37.6762C258.38 37.4177 257.796 37.0116 257.299 36.4818C256.849 35.8934 256.504 35.2039 256.287 34.4551C256.07 33.7064 255.984 32.9139 256.034 32.1251V7L258.563 7.05867Z" fill="white"/>
</g>
<g filter="url(#filter12_d_618_88)">
<path d="M280.353 14.0142C282.356 13.917 284.353 14.3205 286.178 15.1917C287.66 15.9829 288.794 17.3433 289.344 18.99C290.647 23.5683 290.647 28.4462 289.344 33.0246C288.794 34.6712 287.66 36.0317 286.178 36.8229C282.433 38.3924 278.256 38.3924 274.51 36.8229C273.027 36.0277 271.889 34.6695 271.326 33.0246C270 28.4499 270 23.5646 271.326 18.99C271.889 17.345 273.027 15.9868 274.51 15.1917C276.342 14.3217 278.344 13.9183 280.353 14.0142ZM280.353 16.597C278.915 16.5243 277.481 16.8174 276.174 17.4515C275.109 18.0805 274.323 19.1244 273.986 20.3573C273.105 24.0994 273.105 28.0102 273.986 31.7523C274.317 32.9932 275.104 34.0453 276.174 34.677C278.842 35.8171 281.828 35.8171 284.496 34.677C285.03 34.3678 285.501 33.9498 285.88 33.4476C286.259 32.9455 286.539 32.3692 286.703 31.7523C287.583 28.0102 287.583 24.0994 286.703 20.3573C286.535 19.7443 286.254 19.1719 285.876 18.6733C285.497 18.1746 285.028 17.7595 284.496 17.4515C283.2 16.8227 281.779 16.5297 280.353 16.597Z" fill="white"/>
</g>
<g filter="url(#filter13_d_618_88)">
<path d="M316.525 5.0001C316.794 4.99678 317.057 5.07488 317.282 5.22439C317.506 5.37796 317.664 5.61164 317.725 5.87855L328.301 37H325.182L316.304 10.0093C316.174 9.5794 316.045 9.13088 315.879 8.68228L315.473 7.41138H314.144C314.033 7.80391 313.904 8.23368 313.756 8.68228C313.609 9.13088 313.479 9.5794 313.332 10.0093L304.435 37H301.315L311.91 5.87855C311.991 5.62087 312.145 5.39322 312.353 5.22439C312.571 5.07529 312.829 4.99705 313.092 5.0001H316.525ZM322.801 23.6916V26.3459H306.779V23.6916H322.801Z" fill="white"/>
</g>
<g filter="url(#filter14_d_618_88)">
<path d="M335.311 5V14.0853C335.311 15.0574 335.311 15.9547 335.311 16.6464C335.272 17.4062 335.177 18.162 335.027 18.9083L335.311 19.6187V36.6865L332.356 36.537V5.09333L335.311 5ZM344.064 14.3471C345.255 14.2446 346.454 14.4392 347.55 14.9128C348.645 15.3864 349.603 16.1238 350.334 17.0576C351.843 19.8346 352.502 22.9847 352.229 26.1243C352.251 27.8813 352.086 29.6358 351.736 31.3587C351.478 32.708 350.922 33.9845 350.107 35.0976C349.334 36.0906 348.289 36.8434 347.095 37.2661C345.607 37.7909 344.033 38.0381 342.453 37.9952C341.658 37.9952 340.843 37.9952 339.972 37.9952C339.1 37.9952 338.248 37.8269 337.376 37.6961C336.505 37.5652 335.615 37.3969 334.762 37.21C333.926 37.0291 333.103 36.7918 332.299 36.4996L334.686 34.5182C335.634 34.7549 336.543 34.9605 337.414 35.135C338.253 35.2984 339.1 35.4107 339.953 35.4713H342.397C343.761 35.5399 345.118 35.236 346.318 34.5928C347.382 33.9256 348.148 32.8825 348.459 31.6766C348.953 29.8932 349.176 28.0472 349.122 26.1991C349.172 24.3835 348.994 22.5688 348.591 20.7965C348.343 19.6332 347.669 18.6015 346.697 17.899C345.597 17.247 344.322 16.9404 343.041 17.0202C341.701 17.0323 340.39 17.4075 339.252 18.1046C337.753 19.0069 336.316 20.0061 334.951 21.0956L334.762 19.0019C335.685 18.087 336.693 17.2608 337.774 16.5344C338.721 15.8822 339.754 15.3601 340.843 14.9826C341.874 14.6083 342.965 14.4185 344.064 14.4219V14.3471Z" fill="white"/>
</g>
<g filter="url(#filter15_d_618_88)">
<path d="M367.148 14.0369C369.568 13.8355 371.985 14.4625 374.035 15.8236C374.778 16.4665 375.366 17.2834 375.751 18.2081C376.136 19.1327 376.308 20.1392 376.252 21.1462C376.383 22.8105 375.987 24.4738 375.125 25.8793C374.645 26.4627 374.038 26.9161 373.355 27.2008C372.671 27.4854 371.932 27.5929 371.2 27.514H358.481V25.0999H370.528C370.967 25.1562 371.412 25.0806 371.811 24.882C372.21 24.6834 372.546 24.37 372.781 23.9784C373.187 23.0971 373.374 22.1231 373.326 21.1462C373.371 20.4773 373.259 19.807 372.999 19.194C372.74 18.581 372.34 18.0437 371.836 17.6294C370.436 16.8117 368.838 16.4417 367.239 16.565C365.806 16.4954 364.379 16.7887 363.078 17.4203C362.556 17.7236 362.097 18.1316 361.726 18.6209C361.355 19.1101 361.079 19.671 360.916 20.2716C360.44 22.0456 360.225 23.8853 360.28 25.7271C360.2 27.7307 360.464 29.7331 361.061 31.6388C361.259 32.2724 361.577 32.8579 361.995 33.3608C362.413 33.8636 362.924 34.2736 363.496 34.5662C364.875 35.1686 366.364 35.4478 367.857 35.3837C369.129 35.3837 370.437 35.3835 371.8 35.2315C373.163 35.0794 374.362 34.9844 375.434 34.8324L375.743 36.8474C374.96 37.1437 374.15 37.3538 373.326 37.4746C372.363 37.6267 371.346 37.7406 370.31 37.8357C369.274 37.9307 368.348 37.9879 367.53 37.9879C365.493 38.0777 363.464 37.6675 361.606 36.7903C360.111 35.98 358.949 34.6289 358.336 32.9886C357.57 30.7464 357.219 28.3725 357.3 25.9933C357.212 23.584 357.557 21.179 358.317 18.903C358.877 17.2589 360.014 15.8994 361.497 15.1013C363.279 14.3005 365.212 13.9365 367.148 14.0369Z" fill="white"/>
</g>
<g filter="url(#filter16_d_618_88)">
<path d="M384.286 14.5595L384.619 18.8126L384.868 19.5028V37H382.273V14.6155L384.286 14.5595ZM394.267 14L393.934 16.7794H392.936C391.62 16.7868 390.321 17.1112 389.127 17.7308C387.573 18.5327 386.062 19.4358 384.602 20.4355L384.402 18.4767C385.807 17.1849 387.343 16.083 388.977 15.1936C390.355 14.4318 391.866 14.0241 393.402 14H394.267Z" fill="white"/>
</g>
<g filter="url(#filter17_d_618_88)">
<path d="M410.259 14.1504V16.6707H397.265V14.3848L401.187 14.1504H410.259ZM403.496 7.05867V31.7918C403.462 32.2636 403.509 32.7385 403.635 33.1884C403.76 33.6382 403.962 34.0536 404.227 34.4097C404.838 35.0124 405.626 35.3074 406.42 35.2303H409.744L410.076 37.5159C409.611 37.6514 409.139 37.7558 408.664 37.8285C408.115 37.8285 407.6 37.9654 407.118 37.985H405.922C405.25 38.0417 404.575 37.9376 403.938 37.679C403.302 37.4204 402.716 37.0128 402.217 36.4806C401.776 35.8865 401.438 35.1959 401.225 34.4483C401.011 33.7007 400.924 32.9109 400.971 32.124V7L403.496 7.05867Z" fill="white"/>
</g>
<g filter="url(#filter18_d_618_88)">
<path d="M424.269 14.0142C426.28 13.9183 428.284 14.3217 430.118 15.1917C431.598 15.9876 432.731 17.3463 433.287 18.99C434.566 23.5721 434.566 28.4425 433.287 33.0246C432.731 34.6682 431.598 36.027 430.118 36.8229C426.369 38.3924 422.188 38.3924 418.439 36.8229C416.955 36.0277 415.816 34.6695 415.252 33.0246C413.925 28.4499 413.925 23.5646 415.252 18.99C415.816 17.345 416.955 15.9868 418.439 15.1917C420.266 14.3205 422.265 13.917 424.269 14.0142ZM424.269 16.597C422.836 16.5259 421.407 16.819 420.105 17.4515C419.575 17.7597 419.108 18.1752 418.732 18.674C418.356 19.1728 418.078 19.745 417.914 20.3573C417.033 24.0994 417.033 28.0102 417.914 31.7523C418.075 32.368 418.352 32.9438 418.729 33.446C419.105 33.9482 419.573 34.3667 420.105 34.677C421.407 35.3096 422.836 35.6027 424.269 35.5316C425.703 35.5968 427.13 35.3039 428.434 34.677C428.969 34.3702 429.439 33.9527 429.815 33.45C430.192 32.9473 430.467 32.3698 430.625 31.7523C431.506 28.0102 431.506 24.0994 430.625 20.3573C430.464 19.7437 430.187 19.1701 429.811 18.671C429.435 18.1718 428.966 17.7571 428.434 17.4515C427.13 16.8246 425.703 16.5318 424.269 16.597Z" fill="white"/>
</g>
<g filter="url(#filter19_d_618_88)">
<path d="M460.063 14.0377C462.487 13.8338 464.909 14.4602 466.959 15.8215C467.704 16.4653 468.294 17.2807 468.684 18.203C469.073 19.1252 469.251 20.1292 469.203 21.1353C469.335 22.7969 468.938 24.4575 468.072 25.8607C467.59 26.4431 466.98 26.8958 466.294 27.18C465.608 27.4642 464.866 27.5714 464.131 27.4927H451.36V25.0826H463.438C463.879 25.1435 464.327 25.0703 464.728 24.8715C465.13 24.6728 465.468 24.3572 465.7 23.9629C466.124 23.089 466.314 22.112 466.247 21.1353C466.296 20.4672 466.185 19.7969 465.924 19.1843C465.662 18.5717 465.26 18.0357 464.751 17.6243C463.347 16.8059 461.741 16.4364 460.135 16.5617C458.703 16.4922 457.276 16.7852 455.976 17.4156C455.452 17.7184 454.99 18.1257 454.618 18.6142C454.245 19.1026 453.969 19.6626 453.805 20.2622C453.326 22.0333 453.111 23.87 453.166 25.7087C453.09 27.7074 453.35 29.7046 453.932 31.6107C454.134 32.2521 454.457 32.8449 454.884 33.3535C455.31 33.8621 455.83 34.2762 456.414 34.5713C457.805 35.1725 459.305 35.4511 460.811 35.3875C462.069 35.3875 463.401 35.3873 464.77 35.2355C466.138 35.0837 467.342 34.9889 468.419 34.837L468.747 36.8485C467.961 37.1443 467.148 37.3543 466.32 37.475C465.335 37.6268 464.332 37.7405 463.292 37.8354C462.252 37.9303 461.321 37.9874 460.5 37.9874C458.455 38.0791 456.418 37.6696 454.553 36.7918C453.052 35.9828 451.885 34.6339 451.269 32.9963C449.894 28.4178 449.894 23.5123 451.269 18.9339C451.83 17.2924 452.972 15.9352 454.461 15.1383C456.225 14.3372 458.14 13.961 460.063 14.0377Z" fill="white"/>
</g>
<g filter="url(#filter20_d_618_88)">
<path d="M477.573 14.5723L477.79 18.823L478.061 19.5128V37H475.225V14.6283L477.573 14.5723ZM486.893 14.0132C487.659 13.9636 488.427 14.0751 489.151 14.3411C489.874 14.6071 490.537 15.0219 491.101 15.5605C491.632 16.1878 492.037 16.9181 492.291 17.7088C492.545 18.4995 492.644 19.3346 492.582 20.1652V36.944H489.837V20.8924C489.955 19.6819 489.611 18.4717 488.879 17.5181C488.492 17.1506 488.036 16.8696 487.538 16.6931C487.041 16.5166 486.514 16.4485 485.99 16.4926C485.159 16.4955 484.335 16.6404 483.551 16.9214C482.647 17.2451 481.786 17.6834 480.986 18.2263C480.083 18.8415 479 19.6059 477.735 20.5753L477.573 18.4316C478.98 17.0989 480.561 15.9756 482.269 15.0944C483.71 14.3733 485.292 14.0035 486.893 14.0132ZM501.45 14.0132C502.227 13.9594 503.006 14.0706 503.739 14.34C504.472 14.6093 505.144 15.0311 505.713 15.5791C506.772 16.8469 507.305 18.4949 507.194 20.1652V36.944H504.358V20.8924C504.431 19.701 504.099 18.5208 503.419 17.5552C503.04 17.1674 502.583 16.8712 502.08 16.6874C501.578 16.5037 501.042 16.4372 500.511 16.4926C499.661 16.4893 498.817 16.6407 498.019 16.94C497.131 17.2906 496.283 17.7407 495.49 18.2823C494.605 18.8789 493.539 19.6432 492.311 20.5753L492.13 18.4316C493.547 17.0934 495.14 15.9697 496.863 15.0944C498.315 14.369 499.909 13.9991 501.522 14.0132H501.45Z" fill="white"/>
</g>
<g filter="url(#filter21_d_618_88)">
<path d="M531.958 5.00133C533.421 5.00133 534.909 5.0756 536.421 5.22415C537.908 5.35413 539.414 5.55853 540.92 5.83706L540.684 8.04664L536.457 7.80524C534.951 7.80524 533.5 7.80524 532.085 7.80524C531.025 7.80047 529.965 7.8502 528.91 7.95393C528.147 8.00777 527.405 8.2294 526.733 8.6038C526.138 8.9807 525.699 9.56907 525.5 10.2564C525.209 11.3064 525.08 12.3966 525.119 13.4874C524.987 14.9466 525.332 16.4093 526.098 17.6468C526.979 18.5779 528.144 19.1739 529.4 19.3366L535.913 20.7107C537.843 20.9595 539.602 21.9726 540.811 23.533C541.819 25.3158 542.292 27.3631 542.172 29.4194C542.225 30.9427 542.016 32.4638 541.555 33.9131C541.214 34.934 540.582 35.8267 539.741 36.4756C538.793 37.1038 537.721 37.5096 536.602 37.664C535.127 37.9044 533.634 38.016 532.139 37.9981C531.069 37.9981 529.727 37.9982 528.148 37.8497C526.325 37.7324 524.509 37.5215 522.706 37.2182L522.942 35.0086L526.788 35.1571C527.822 35.1571 528.765 35.1571 529.6 35.1571H532.248C533.645 35.1777 535.04 35.0281 536.403 34.7114C536.861 34.6083 537.293 34.4058 537.668 34.1176C538.044 33.8293 538.354 33.4618 538.579 33.0402C539.077 31.8712 539.3 30.5995 539.233 29.3264C539.274 28.2255 539.127 27.1256 538.797 26.0769C538.563 25.3123 538.076 24.6555 537.419 24.22C536.645 23.7681 535.796 23.466 534.915 23.3287L528.293 21.8989C527.369 21.7762 526.478 21.467 525.671 20.9888C524.865 20.5107 524.159 19.8732 523.595 19.1136C522.585 17.365 522.105 15.3485 522.216 13.3201C522.163 11.7968 522.372 10.2759 522.833 8.82661C523.161 7.8142 523.796 6.9358 524.647 6.31987C525.56 5.72144 526.598 5.35226 527.677 5.24273C529.097 5.06909 530.527 4.98846 531.958 5.00133Z" fill="white"/>
</g>
<g filter="url(#filter22_d_618_88)">
<path d="M564.58 23.6014V25.8855L553.59 25.9815C553.117 25.9477 552.643 26.0175 552.198 26.1863C551.753 26.3551 551.349 26.6189 551.011 26.9605C550.434 27.6893 550.147 28.6148 550.207 29.5517V31.4712C550.167 31.9969 550.232 32.5255 550.399 33.0242C550.567 33.5228 550.832 33.9809 551.179 34.3696C552.013 35.0701 553.077 35.4139 554.151 35.3293C555.262 35.3487 556.368 35.1734 557.422 34.811C558.667 34.4029 559.859 33.8422 560.973 33.1411C562.117 32.4337 563.161 31.5683 564.076 30.5691V32.8915C563.604 33.4811 563.064 34.0095 562.468 34.4654C561.71 35.0879 560.903 35.6463 560.057 36.1353C559.103 36.6898 558.094 37.1403 557.048 37.4791C555.945 37.8241 554.799 37.9988 553.646 37.9974C552.475 38.0283 551.312 37.7854 550.245 37.2872C549.307 36.8219 548.526 36.0799 548.002 35.1564C547.439 34.1197 547.161 32.9455 547.198 31.7591V29.091C547.15 28.3289 547.265 27.5652 547.532 26.8527C547.8 26.1402 548.215 25.4958 548.749 24.9642C549.978 23.9344 551.54 23.4201 553.123 23.5246L564.58 23.6014ZM558.973 14.0041C560.313 13.9655 561.647 14.2003 562.898 14.6951C563.931 15.1322 564.788 15.9173 565.328 16.9215C565.943 18.2159 566.232 19.648 566.169 21.0868V37.671H563.851L563.384 32.6228L563.197 32.2006V21.0868C563.283 19.8886 562.922 18.7017 562.188 17.7662C561.673 17.3242 561.077 16.9943 560.434 16.7964C559.791 16.5984 559.116 16.5365 558.45 16.6145C557.085 16.6145 555.515 16.6145 553.721 16.8064C551.927 16.9984 550.189 17.0944 548.488 17.2863L548.207 15.0404C549.254 14.8485 550.375 14.6949 551.534 14.5414L555.272 14.1576C556.375 14.0808 557.646 14.0233 558.917 14.0233L558.973 14.0041Z" fill="white"/>
</g>
<g filter="url(#filter23_d_618_88)">
<path d="M575.14 13.9806V30.7651C575.011 32.0101 575.358 33.2579 576.109 34.2465C576.554 34.6301 577.068 34.9203 577.623 35.1005C578.177 35.2807 578.761 35.3472 579.341 35.2966C580.796 35.2884 582.229 34.9287 583.523 34.2465C585.22 33.3259 586.863 32.3063 588.446 31.1929L588.788 33.4295C587.174 34.7929 585.399 35.943 583.504 36.8526C581.883 37.5952 580.129 37.9859 578.352 38C574.234 38 572.174 35.8608 572.174 31.582V14.078L575.14 13.9806ZM586.545 2L588.332 4.37295L579.949 10.4992L578.808 9.04051L586.545 2ZM591.164 13.9806V37.3193H588.807L588.522 32.9239L588.199 32.2043V13.9222L591.164 13.9806Z" fill="white"/>
</g>
<g filter="url(#filter24_d_618_88)">
<path d="M605.237 14.3787C606.7 14.3833 608.155 14.585 609.567 14.9789C611.046 15.3983 612.474 15.9897 613.823 16.742L613.678 18.6177C612.113 18.0737 610.731 17.6612 609.548 17.3611C608.36 17.0482 607.137 16.8907 605.91 16.8922C604.744 16.8356 603.585 17.1147 602.563 17.6986C601.635 18.3667 600.985 19.3715 600.744 20.5122C599.944 24.1677 599.944 27.9613 600.744 31.6167C601.006 32.7686 601.649 33.7902 602.563 34.5055C603.534 35.1219 604.662 35.4225 605.801 35.3682C606.665 35.3789 607.525 35.2459 608.348 34.9744C609.214 34.6559 610.039 34.2273 610.804 33.6988C611.677 33.0986 612.623 32.3672 613.823 31.5043L614.06 33.7363C612.755 34.9329 611.314 35.9597 609.767 36.7938C608.286 37.5737 606.646 37.9787 604.983 37.9755C603.828 38.077 602.667 37.8616 601.619 37.3509C600.572 36.8403 599.673 36.0525 599.016 35.0681C597.628 32.3064 596.999 29.206 597.197 26.1022C597.122 23.7491 597.417 21.3989 598.07 19.143C598.505 17.6066 599.452 16.278 600.744 15.3915C602.124 14.6379 603.678 14.2878 605.237 14.3787ZM616.151 5V37.5817H613.932L613.568 33.6237L613.296 33.3425V17.7549L613.532 17.0609C613.408 16.2605 613.341 15.4517 613.332 14.6411C613.332 13.8908 613.332 13.0844 613.332 12.2216V5H616.151Z" fill="white"/>
</g>
<g filter="url(#filter25_d_618_88)">
<path d="M632.01 14.0378C634.425 13.8336 636.837 14.4609 638.879 15.8244C639.627 16.4633 640.22 17.2789 640.609 18.2042C640.997 19.1294 641.17 20.1379 641.114 21.1468C641.245 22.8111 640.849 24.4743 639.987 25.8798C639.508 26.4632 638.9 26.9165 638.217 27.2012C637.533 27.4858 636.794 27.5933 636.062 27.5144H623.343V25.1004H635.39C635.829 25.1567 636.274 25.0811 636.673 24.8825C637.072 24.6839 637.408 24.3705 637.643 23.979C638.048 23.0978 638.23 22.1225 638.17 21.1468C638.218 20.4776 638.108 19.8062 637.848 19.1926C637.588 18.579 637.187 18.0422 636.68 17.6301C635.282 16.8083 633.682 16.438 632.083 16.5658C630.656 16.4962 629.235 16.7896 627.94 17.421C627.418 17.7244 626.959 18.1323 626.588 18.6216C626.217 19.1108 625.942 19.6717 625.778 20.2723C625.302 22.0462 625.087 23.8859 625.142 25.7276C625.066 27.7295 625.325 29.7298 625.905 31.639C626.316 32.9126 627.191 33.9648 628.34 34.5663C629.726 35.1668 631.22 35.4457 632.719 35.3838C633.991 35.3838 635.299 35.3836 636.662 35.2316C638.025 35.0795 639.224 34.9846 640.296 34.8325L640.605 36.8475C639.822 37.1437 639.012 37.3538 638.188 37.4746C637.207 37.6267 636.208 37.7406 635.172 37.8357C634.136 37.9307 633.21 37.9879 632.392 37.9879C630.355 38.0776 628.327 37.6675 626.468 36.7904C624.974 35.9801 623.811 34.629 623.198 32.9888C622.433 30.7466 622.081 28.3729 622.162 25.9937C622.074 23.5846 622.419 21.1796 623.18 18.9037C623.739 17.2597 624.876 15.9002 626.359 15.1021C628.141 14.3014 630.074 13.9374 632.01 14.0378Z" fill="white"/>
</g>
</g>
<defs>
<filter id="filter0_d_618_88" x="2.46899" y="2" width="642.669" height="44" filterUnits="userSpaceOnUse" color-interpolation-filters="sRGB">
<feFlood flood-opacity="0" result="BackgroundImageFix"/>
<feColorMatrix in="SourceAlpha" type="matrix" values="0 0 0 0 0 0 0 0 0 0 0 0 0 0 0 0 0 0 127 0" result="hardAlpha"/>
<feOffset dy="4"/>
<feGaussianBlur stdDeviation="2"/>
<feComposite in2="hardAlpha" operator="out"/>
<feColorMatrix type="matrix" values="0 0 0 0 0 0 0 0 0 0 0 0 0 0 0 0 0 0 0.25 0"/>
<feBlend mode="normal" in2="BackgroundImageFix" result="effect1_dropShadow_618_88"/>
<feBlend mode="normal" in="SourceGraphic" in2="effect1_dropShadow_618_88" result="shape"/>
</filter>
<filter id="filter1_d_618_88" x="0.468994" y="3" width="32.989" height="45" filterUnits="userSpaceOnUse" color-interpolation-filters="sRGB">
<feFlood flood-opacity="0" result="BackgroundImageFix"/>
<feColorMatrix in="SourceAlpha" type="matrix" values="0 0 0 0 0 0 0 0 0 0 0 0 0 0 0 0 0 0 127 0" result="hardAlpha"/>
<feOffset dy="4"/>
<feGaussianBlur stdDeviation="3"/>
<feComposite in2="hardAlpha" operator="out"/>
<feColorMatrix type="matrix" values="0 0 0 0 0 0 0 0 0 0 0 0 0 0 0 0 0 0 0.4 0"/>
<feBlend mode="normal" in2="BackgroundImageFix" result="effect1_dropShadow_618_88"/>
<feBlend mode="normal" in="SourceGraphic" in2="effect1_dropShadow_618_88" result="shape"/>
</filter>
<filter id="filter2_d_618_88" x="25.4561" y="12" width="31.9895" height="36" filterUnits="userSpaceOnUse" color-interpolation-filters="sRGB">
<feFlood flood-opacity="0" result="BackgroundImageFix"/>
<feColorMatrix in="SourceAlpha" type="matrix" values="0 0 0 0 0 0 0 0 0 0 0 0 0 0 0 0 0 0 127 0" result="hardAlpha"/>
<feOffset dy="4"/>
<feGaussianBlur stdDeviation="3"/>
<feComposite in2="hardAlpha" operator="out"/>
<feColorMatrix type="matrix" values="0 0 0 0 0 0 0 0 0 0 0 0 0 0 0 0 0 0 0.4 0"/>
<feBlend mode="normal" in2="BackgroundImageFix" result="effect1_dropShadow_618_88"/>
<feBlend mode="normal" in="SourceGraphic" in2="effect1_dropShadow_618_88" result="shape"/>
</filter>
<filter id="filter3_d_618_88" x="52.4419" y="12" width="29.9907" height="35" filterUnits="userSpaceOnUse" color-interpolation-filters="sRGB">
<feFlood flood-opacity="0" result="BackgroundImageFix"/>
<feColorMatrix in="SourceAlpha" type="matrix" values="0 0 0 0 0 0 0 0 0 0 0 0 0 0 0 0 0 0 127 0" result="hardAlpha"/>
<feOffset dy="4"/>
<feGaussianBlur stdDeviation="3"/>
<feComposite in2="hardAlpha" operator="out"/>
<feColorMatrix type="matrix" values="0 0 0 0 0 0 0 0 0 0 0 0 0 0 0 0 0 0 0.4 0"/>
<feBlend mode="normal" in2="BackgroundImageFix" result="effect1_dropShadow_618_88"/>
<feBlend mode="normal" in="SourceGraphic" in2="effect1_dropShadow_618_88" result="shape"/>
</filter>
<filter id="filter4_d_618_88" x="77.429" y="3" width="30.99" height="44" filterUnits="userSpaceOnUse" color-interpolation-filters="sRGB">
<feFlood flood-opacity="0" result="BackgroundImageFix"/>
<feColorMatrix in="SourceAlpha" type="matrix" values="0 0 0 0 0 0 0 0 0 0 0 0 0 0 0 0 0 0 127 0" result="hardAlpha"/>
<feOffset dy="4"/>
<feGaussianBlur stdDeviation="3"/>
<feComposite in2="hardAlpha" operator="out"/>
<feColorMatrix type="matrix" values="0 0 0 0 0 0 0 0 0 0 0 0 0 0 0 0 0 0 0.4 0"/>
<feBlend mode="normal" in2="BackgroundImageFix" result="effect1_dropShadow_618_88"/>
<feBlend mode="normal" in="SourceGraphic" in2="effect1_dropShadow_618_88" result="shape"/>
</filter>
<filter id="filter5_d_618_88" x="102.416" y="12" width="30.99" height="36" filterUnits="userSpaceOnUse" color-interpolation-filters="sRGB">
<feFlood flood-opacity="0" result="BackgroundImageFix"/>
<feColorMatrix in="SourceAlpha" type="matrix" values="0 0 0 0 0 0 0 0 0 0 0 0 0 0 0 0 0 0 127 0" result="hardAlpha"/>
<feOffset dy="4"/>
<feGaussianBlur stdDeviation="3"/>
<feComposite in2="hardAlpha" operator="out"/>
<feColorMatrix type="matrix" values="0 0 0 0 0 0 0 0 0 0 0 0 0 0 0 0 0 0 0.4 0"/>
<feBlend mode="normal" in2="BackgroundImageFix" result="effect1_dropShadow_618_88"/>
<feBlend mode="normal" in="SourceGraphic" in2="effect1_dropShadow_618_88" result="shape"/>
</filter>
<filter id="filter6_d_618_88" x="126.403" y="12" width="28.9912" height="36" filterUnits="userSpaceOnUse" color-interpolation-filters="sRGB">
<feFlood flood-opacity="0" result="BackgroundImageFix"/>
<feColorMatrix in="SourceAlpha" type="matrix" values="0 0 0 0 0 0 0 0 0 0 0 0 0 0 0 0 0 0 127 0" result="hardAlpha"/>
<feOffset dy="4"/>
<feGaussianBlur stdDeviation="3"/>
<feComposite in2="hardAlpha" operator="out"/>
<feColorMatrix type="matrix" values="0 0 0 0 0 0 0 0 0 0 0 0 0 0 0 0 0 0 0.4 0"/>
<feBlend mode="normal" in2="BackgroundImageFix" result="effect1_dropShadow_618_88"/>
<feBlend mode="normal" in="SourceGraphic" in2="effect1_dropShadow_618_88" result="shape"/>
</filter>
<filter id="filter7_d_618_88" x="149.391" y="3" width="14.9985" height="44" filterUnits="userSpaceOnUse" color-interpolation-filters="sRGB">
<feFlood flood-opacity="0" result="BackgroundImageFix"/>
<feColorMatrix in="SourceAlpha" type="matrix" values="0 0 0 0 0 0 0 0 0 0 0 0 0 0 0 0 0 0 127 0" result="hardAlpha"/>
<feOffset dy="4"/>
<feGaussianBlur stdDeviation="3"/>
<feComposite in2="hardAlpha" operator="out"/>
<feColorMatrix type="matrix" values="0 0 0 0 0 0 0 0 0 0 0 0 0 0 0 0 0 0 0.4 0"/>
<feBlend mode="normal" in2="BackgroundImageFix" result="effect1_dropShadow_618_88"/>
<feBlend mode="normal" in="SourceGraphic" in2="effect1_dropShadow_618_88" result="shape"/>
</filter>
<filter id="filter8_d_618_88" x="159.386" y="12" width="43.9834" height="35" filterUnits="userSpaceOnUse" color-interpolation-filters="sRGB">
<feFlood flood-opacity="0" result="BackgroundImageFix"/>
<feColorMatrix in="SourceAlpha" type="matrix" values="0 0 0 0 0 0 0 0 0 0 0 0 0 0 0 0 0 0 127 0" result="hardAlpha"/>
<feOffset dy="4"/>
<feGaussianBlur stdDeviation="3"/>
<feComposite in2="hardAlpha" operator="out"/>
<feColorMatrix type="matrix" values="0 0 0 0 0 0 0 0 0 0 0 0 0 0 0 0 0 0 0.4 0"/>
<feBlend mode="normal" in2="BackgroundImageFix" result="effect1_dropShadow_618_88"/>
<feBlend mode="normal" in="SourceGraphic" in2="effect1_dropShadow_618_88" result="shape"/>
</filter>
<filter id="filter9_d_618_88" x="197.366" y="12" width="30.99" height="36" filterUnits="userSpaceOnUse" color-interpolation-filters="sRGB">
<feFlood flood-opacity="0" result="BackgroundImageFix"/>
<feColorMatrix in="SourceAlpha" type="matrix" values="0 0 0 0 0 0 0 0 0 0 0 0 0 0 0 0 0 0 127 0" result="hardAlpha"/>
<feOffset dy="4"/>
<feGaussianBlur stdDeviation="3"/>
<feComposite in2="hardAlpha" operator="out"/>
<feColorMatrix type="matrix" values="0 0 0 0 0 0 0 0 0 0 0 0 0 0 0 0 0 0 0.4 0"/>
<feBlend mode="normal" in2="BackgroundImageFix" result="effect1_dropShadow_618_88"/>
<feBlend mode="normal" in="SourceGraphic" in2="effect1_dropShadow_618_88" result="shape"/>
</filter>
<filter id="filter10_d_618_88" x="222.354" y="12" width="30.99" height="35" filterUnits="userSpaceOnUse" color-interpolation-filters="sRGB">
<feFlood flood-opacity="0" result="BackgroundImageFix"/>
<feColorMatrix in="SourceAlpha" type="matrix" values="0 0 0 0 0 0 0 0 0 0 0 0 0 0 0 0 0 0 127 0" result="hardAlpha"/>
<feOffset dy="4"/>
<feGaussianBlur stdDeviation="3"/>
<feComposite in2="hardAlpha" operator="out"/>
<feColorMatrix type="matrix" values="0 0 0 0 0 0 0 0 0 0 0 0 0 0 0 0 0 0 0.4 0"/>
<feBlend mode="normal" in2="BackgroundImageFix" result="effect1_dropShadow_618_88"/>
<feBlend mode="normal" in="SourceGraphic" in2="effect1_dropShadow_618_88" result="shape"/>
</filter>
<filter id="filter11_d_618_88" x="246.341" y="5" width="24.9932" height="43" filterUnits="userSpaceOnUse" color-interpolation-filters="sRGB">
<feFlood flood-opacity="0" result="BackgroundImageFix"/>
<feColorMatrix in="SourceAlpha" type="matrix" values="0 0 0 0 0 0 0 0 0 0 0 0 0 0 0 0 0 0 127 0" result="hardAlpha"/>
<feOffset dy="4"/>
<feGaussianBlur stdDeviation="3"/>
<feComposite in2="hardAlpha" operator="out"/>
<feColorMatrix type="matrix" values="0 0 0 0 0 0 0 0 0 0 0 0 0 0 0 0 0 0 0.4 0"/>
<feBlend mode="normal" in2="BackgroundImageFix" result="effect1_dropShadow_618_88"/>
<feBlend mode="normal" in="SourceGraphic" in2="effect1_dropShadow_618_88" result="shape"/>
</filter>
<filter id="filter12_d_618_88" x="264.332" y="12" width="31.9895" height="36" filterUnits="userSpaceOnUse" color-interpolation-filters="sRGB">
<feFlood flood-opacity="0" result="BackgroundImageFix"/>
<feColorMatrix in="SourceAlpha" type="matrix" values="0 0 0 0 0 0 0 0 0 0 0 0 0 0 0 0 0 0 127 0" result="hardAlpha"/>
<feOffset dy="4"/>
<feGaussianBlur stdDeviation="3"/>
<feComposite in2="hardAlpha" operator="out"/>
<feColorMatrix type="matrix" values="0 0 0 0 0 0 0 0 0 0 0 0 0 0 0 0 0 0 0.4 0"/>
<feBlend mode="normal" in2="BackgroundImageFix" result="effect1_dropShadow_618_88"/>
<feBlend mode="normal" in="SourceGraphic" in2="effect1_dropShadow_618_88" result="shape"/>
</filter>
<filter id="filter13_d_618_88" x="295.315" y="3" width="38.9858" height="44" filterUnits="userSpaceOnUse" color-interpolation-filters="sRGB">
<feFlood flood-opacity="0" result="BackgroundImageFix"/>
<feColorMatrix in="SourceAlpha" type="matrix" values="0 0 0 0 0 0 0 0 0 0 0 0 0 0 0 0 0 0 127 0" result="hardAlpha"/>
<feOffset dy="4"/>
<feGaussianBlur stdDeviation="3"/>
<feComposite in2="hardAlpha" operator="out"/>
<feColorMatrix type="matrix" values="0 0 0 0 0 0 0 0 0 0 0 0 0 0 0 0 0 0 0.4 0"/>
<feBlend mode="normal" in2="BackgroundImageFix" result="effect1_dropShadow_618_88"/>
<feBlend mode="normal" in="SourceGraphic" in2="effect1_dropShadow_618_88" result="shape"/>
</filter>
<filter id="filter14_d_618_88" x="326.299" y="3" width="31.9895" height="45" filterUnits="userSpaceOnUse" color-interpolation-filters="sRGB">
<feFlood flood-opacity="0" result="BackgroundImageFix"/>
<feColorMatrix in="SourceAlpha" type="matrix" values="0 0 0 0 0 0 0 0 0 0 0 0 0 0 0 0 0 0 127 0" result="hardAlpha"/>
<feOffset dy="4"/>
<feGaussianBlur stdDeviation="3"/>
<feComposite in2="hardAlpha" operator="out"/>
<feColorMatrix type="matrix" values="0 0 0 0 0 0 0 0 0 0 0 0 0 0 0 0 0 0 0.4 0"/>
<feBlend mode="normal" in2="BackgroundImageFix" result="effect1_dropShadow_618_88"/>
<feBlend mode="normal" in="SourceGraphic" in2="effect1_dropShadow_618_88" result="shape"/>
</filter>
<filter id="filter15_d_618_88" x="351.286" y="12" width="30.99" height="36" filterUnits="userSpaceOnUse" color-interpolation-filters="sRGB">
<feFlood flood-opacity="0" result="BackgroundImageFix"/>
<feColorMatrix in="SourceAlpha" type="matrix" values="0 0 0 0 0 0 0 0 0 0 0 0 0 0 0 0 0 0 127 0" result="hardAlpha"/>
<feOffset dy="4"/>
<feGaussianBlur stdDeviation="3"/>
<feComposite in2="hardAlpha" operator="out"/>
<feColorMatrix type="matrix" values="0 0 0 0 0 0 0 0 0 0 0 0 0 0 0 0 0 0 0.4 0"/>
<feBlend mode="normal" in2="BackgroundImageFix" result="effect1_dropShadow_618_88"/>
<feBlend mode="normal" in="SourceGraphic" in2="effect1_dropShadow_618_88" result="shape"/>
</filter>
<filter id="filter16_d_618_88" x="376.273" y="12" width="23.9937" height="35" filterUnits="userSpaceOnUse" color-interpolation-filters="sRGB">
<feFlood flood-opacity="0" result="BackgroundImageFix"/>
<feColorMatrix in="SourceAlpha" type="matrix" values="0 0 0 0 0 0 0 0 0 0 0 0 0 0 0 0 0 0 127 0" result="hardAlpha"/>
<feOffset dy="4"/>
<feGaussianBlur stdDeviation="3"/>
<feComposite in2="hardAlpha" operator="out"/>
<feColorMatrix type="matrix" values="0 0 0 0 0 0 0 0 0 0 0 0 0 0 0 0 0 0 0.4 0"/>
<feBlend mode="normal" in2="BackgroundImageFix" result="effect1_dropShadow_618_88"/>
<feBlend mode="normal" in="SourceGraphic" in2="effect1_dropShadow_618_88" result="shape"/>
</filter>
<filter id="filter17_d_618_88" x="391.265" y="5" width="24.9932" height="43" filterUnits="userSpaceOnUse" color-interpolation-filters="sRGB">
<feFlood flood-opacity="0" result="BackgroundImageFix"/>
<feColorMatrix in="SourceAlpha" type="matrix" values="0 0 0 0 0 0 0 0 0 0 0 0 0 0 0 0 0 0 127 0" result="hardAlpha"/>
<feOffset dy="4"/>
<feGaussianBlur stdDeviation="3"/>
<feComposite in2="hardAlpha" operator="out"/>
<feColorMatrix type="matrix" values="0 0 0 0 0 0 0 0 0 0 0 0 0 0 0 0 0 0 0.4 0"/>
<feBlend mode="normal" in2="BackgroundImageFix" result="effect1_dropShadow_618_88"/>
<feBlend mode="normal" in="SourceGraphic" in2="effect1_dropShadow_618_88" result="shape"/>
</filter>
<filter id="filter18_d_618_88" x="408.257" y="12" width="31.9895" height="36" filterUnits="userSpaceOnUse" color-interpolation-filters="sRGB">
<feFlood flood-opacity="0" result="BackgroundImageFix"/>
<feColorMatrix in="SourceAlpha" type="matrix" values="0 0 0 0 0 0 0 0 0 0 0 0 0 0 0 0 0 0 127 0" result="hardAlpha"/>
<feOffset dy="4"/>
<feGaussianBlur stdDeviation="3"/>
<feComposite in2="hardAlpha" operator="out"/>
<feColorMatrix type="matrix" values="0 0 0 0 0 0 0 0 0 0 0 0 0 0 0 0 0 0 0.4 0"/>
<feBlend mode="normal" in2="BackgroundImageFix" result="effect1_dropShadow_618_88"/>
<feBlend mode="normal" in="SourceGraphic" in2="effect1_dropShadow_618_88" result="shape"/>
</filter>
<filter id="filter19_d_618_88" x="444.238" y="12" width="30.99" height="36" filterUnits="userSpaceOnUse" color-interpolation-filters="sRGB">
<feFlood flood-opacity="0" result="BackgroundImageFix"/>
<feColorMatrix in="SourceAlpha" type="matrix" values="0 0 0 0 0 0 0 0 0 0 0 0 0 0 0 0 0 0 127 0" result="hardAlpha"/>
<feOffset dy="4"/>
<feGaussianBlur stdDeviation="3"/>
<feComposite in2="hardAlpha" operator="out"/>
<feColorMatrix type="matrix" values="0 0 0 0 0 0 0 0 0 0 0 0 0 0 0 0 0 0 0.4 0"/>
<feBlend mode="normal" in2="BackgroundImageFix" result="effect1_dropShadow_618_88"/>
<feBlend mode="normal" in="SourceGraphic" in2="effect1_dropShadow_618_88" result="shape"/>
</filter>
<filter id="filter20_d_618_88" x="469.225" y="12" width="43.9834" height="35" filterUnits="userSpaceOnUse" color-interpolation-filters="sRGB">
<feFlood flood-opacity="0" result="BackgroundImageFix"/>
<feColorMatrix in="SourceAlpha" type="matrix" values="0 0 0 0 0 0 0 0 0 0 0 0 0 0 0 0 0 0 127 0" result="hardAlpha"/>
<feOffset dy="4"/>
<feGaussianBlur stdDeviation="3"/>
<feComposite in2="hardAlpha" operator="out"/>
<feColorMatrix type="matrix" values="0 0 0 0 0 0 0 0 0 0 0 0 0 0 0 0 0 0 0.4 0"/>
<feBlend mode="normal" in2="BackgroundImageFix" result="effect1_dropShadow_618_88"/>
<feBlend mode="normal" in="SourceGraphic" in2="effect1_dropShadow_618_88" result="shape"/>
</filter>
<filter id="filter21_d_618_88" x="516.2" y="3" width="31.9895" height="45" filterUnits="userSpaceOnUse" color-interpolation-filters="sRGB">
<feFlood flood-opacity="0" result="BackgroundImageFix"/>
<feColorMatrix in="SourceAlpha" type="matrix" values="0 0 0 0 0 0 0 0 0 0 0 0 0 0 0 0 0 0 127 0" result="hardAlpha"/>
<feOffset dy="4"/>
<feGaussianBlur stdDeviation="3"/>
<feComposite in2="hardAlpha" operator="out"/>
<feColorMatrix type="matrix" values="0 0 0 0 0 0 0 0 0 0 0 0 0 0 0 0 0 0 0.4 0"/>
<feBlend mode="normal" in2="BackgroundImageFix" result="effect1_dropShadow_618_88"/>
<feBlend mode="normal" in="SourceGraphic" in2="effect1_dropShadow_618_88" result="shape"/>
</filter>
<filter id="filter22_d_618_88" x="541.188" y="12" width="30.99" height="36" filterUnits="userSpaceOnUse" color-interpolation-filters="sRGB">
<feFlood flood-opacity="0" result="BackgroundImageFix"/>
<feColorMatrix in="SourceAlpha" type="matrix" values="0 0 0 0 0 0 0 0 0 0 0 0 0 0 0 0 0 0 127 0" result="hardAlpha"/>
<feOffset dy="4"/>
<feGaussianBlur stdDeviation="3"/>
<feComposite in2="hardAlpha" operator="out"/>
<feColorMatrix type="matrix" values="0 0 0 0 0 0 0 0 0 0 0 0 0 0 0 0 0 0 0.4 0"/>
<feBlend mode="normal" in2="BackgroundImageFix" result="effect1_dropShadow_618_88"/>
<feBlend mode="normal" in="SourceGraphic" in2="effect1_dropShadow_618_88" result="shape"/>
</filter>
<filter id="filter23_d_618_88" x="566.174" y="0" width="30.99" height="48" filterUnits="userSpaceOnUse" color-interpolation-filters="sRGB">
<feFlood flood-opacity="0" result="BackgroundImageFix"/>
<feColorMatrix in="SourceAlpha" type="matrix" values="0 0 0 0 0 0 0 0 0 0 0 0 0 0 0 0 0 0 127 0" result="hardAlpha"/>
<feOffset dy="4"/>
<feGaussianBlur stdDeviation="3"/>
<feComposite in2="hardAlpha" operator="out"/>
<feColorMatrix type="matrix" values="0 0 0 0 0 0 0 0 0 0 0 0 0 0 0 0 0 0 0.4 0"/>
<feBlend mode="normal" in2="BackgroundImageFix" result="effect1_dropShadow_618_88"/>
<feBlend mode="normal" in="SourceGraphic" in2="effect1_dropShadow_618_88" result="shape"/>
</filter>
<filter id="filter24_d_618_88" x="591.161" y="3" width="30.99" height="45" filterUnits="userSpaceOnUse" color-interpolation-filters="sRGB">
<feFlood flood-opacity="0" result="BackgroundImageFix"/>
<feColorMatrix in="SourceAlpha" type="matrix" values="0 0 0 0 0 0 0 0 0 0 0 0 0 0 0 0 0 0 127 0" result="hardAlpha"/>
<feOffset dy="4"/>
<feGaussianBlur stdDeviation="3"/>
<feComposite in2="hardAlpha" operator="out"/>
<feColorMatrix type="matrix" values="0 0 0 0 0 0 0 0 0 0 0 0 0 0 0 0 0 0 0.4 0"/>
<feBlend mode="normal" in2="BackgroundImageFix" result="effect1_dropShadow_618_88"/>
<feBlend mode="normal" in="SourceGraphic" in2="effect1_dropShadow_618_88" result="shape"/>
</filter>
<filter id="filter25_d_618_88" x="616.148" y="12" width="30.99" height="36" filterUnits="userSpaceOnUse" color-interpolation-filters="sRGB">
<feFlood flood-opacity="0" result="BackgroundImageFix"/>
<feColorMatrix in="SourceAlpha" type="matrix" values="0 0 0 0 0 0 0 0 0 0 0 0 0 0 0 0 0 0 127 0" result="hardAlpha"/>
<feOffset dy="4"/>
<feGaussianBlur stdDeviation="3"/>
<feComposite in2="hardAlpha" operator="out"/>
<feColorMatrix type="matrix" values="0 0 0 0 0 0 0 0 0 0 0 0 0 0 0 0 0 0 0.4 0"/>
<feBlend mode="normal" in2="BackgroundImageFix" result="effect1_dropShadow_618_88"/>
<feBlend mode="normal" in="SourceGraphic" in2="effect1_dropShadow_618_88" result="shape"/>
</filter>
</defs>
</svg>
