<svg width="646" height="147" viewBox="0 0 646 147" fill="none" xmlns="http://www.w3.org/2000/svg">
<g filter="url(#filter0_d_618_81)">
<path d="M394.409 67.4942C387.165 64.6285 379.752 62.2743 372.218 60.4469C366.642 59.1598 361.138 57.5476 355.729 55.6172C352.139 54.3509 348.847 52.2812 346.072 49.5472C344.88 48.2982 343.95 46.7954 343.341 45.1373C342.733 43.4793 342.46 41.7033 342.541 39.9252C342.487 37.0324 343.192 34.181 344.577 31.6912C345.962 29.2014 347.971 27.1719 350.379 25.8306C355.817 22.3164 363.002 20.5497 371.776 20.5497C381.041 20.5367 390.243 22.1755 398.999 25.3982C400.042 25.8921 401.161 26.1788 402.3 26.244C403.465 26.2804 404.622 26.0336 405.684 25.5223C406.745 25.011 407.683 24.2487 408.426 23.2934C409.871 21.5495 410.668 19.3043 410.668 16.9791C410.77 15.0341 410.254 13.1094 409.204 11.5142C408.154 9.919 406.63 8.74614 404.878 8.18415C393.71 3.94264 381.92 1.85522 370.064 2.02006C361.519 1.78841 353.032 3.56587 345.207 7.2257C338.76 10.2399 333.25 15.1407 329.318 21.3579C325.737 27.2706 323.86 34.1687 323.916 41.203C323.916 49.5282 326.123 56.2372 330.501 61.3489C334.753 66.2724 340.015 70.086 345.878 72.4931C353.325 75.449 360.922 77.9586 368.634 80.0102C375.572 81.8895 380.992 83.6373 384.734 85.028C388.075 86.2025 391.164 88.0671 393.826 90.5154C394.915 91.4971 395.785 92.7253 396.371 94.1104C396.958 95.4954 397.246 97.0023 397.216 98.5211C397.216 111.676 387.824 118.085 368.493 118.085C356.994 118.159 345.611 115.642 335.091 110.699C333.875 110.12 332.557 109.825 331.225 109.834C330.069 109.803 328.92 110.037 327.857 110.52C326.794 111.003 325.841 111.724 325.063 112.635C323.515 114.38 322.666 116.699 322.698 119.099C322.714 121.028 323.287 122.904 324.339 124.474C325.343 126.062 326.76 127.303 328.418 128.045C341.569 134.038 355.74 137.083 370.046 136.99C378.156 137.143 386.211 135.538 393.72 132.273C400.142 129.503 405.724 124.907 409.856 118.987C413.682 113.36 415.712 106.575 415.647 99.6298C415.647 90.9663 413.528 83.9567 409.344 78.7887C405.317 73.7701 400.186 69.89 394.409 67.4942Z" fill="white"/>
</g>
<g filter="url(#filter1_d_618_81)">
<path d="M522.979 3.00124C521.728 2.97998 520.487 3.23142 519.334 3.7394C518.182 4.24738 517.144 5.00063 516.286 5.95135C515.408 6.87855 514.718 7.97983 514.254 9.19001C513.791 10.4002 513.564 11.6948 513.587 12.998V86.0578C513.772 92.3561 512.176 98.5718 508.998 103.928C506.039 108.726 501.832 112.546 496.871 114.94C491.776 117.391 486.233 118.661 480.624 118.661C475.014 118.661 469.471 117.391 464.376 114.94C459.408 112.549 455.195 108.729 452.231 103.928C449.053 98.5718 447.457 92.3561 447.642 86.0578V12.998C447.638 10.3482 446.628 7.80853 444.834 5.93483C443.039 4.06113 440.607 3.00621 438.07 3.00124C436.819 2.97998 435.578 3.23142 434.426 3.7394C433.273 4.24738 432.235 5.00063 431.377 5.95135C430.503 6.88104 429.814 7.98271 429.351 9.19231C428.888 10.4019 428.659 11.6954 428.678 12.998V85.513C428.313 95.1208 430.713 104.622 435.568 112.792C440.424 120.961 447.513 127.423 455.919 131.345C463.663 135.071 472.088 137 480.615 137C489.141 137 497.566 135.071 505.31 131.345C513.716 127.423 520.805 120.961 525.661 112.792C530.516 104.622 532.916 95.1208 532.551 85.513V12.998C532.546 10.3482 531.536 7.80853 529.742 5.93483C527.948 4.06113 525.516 3.00621 522.979 3.00124Z" fill="white"/>
</g>
<g filter="url(#filter2_d_618_81)">
<path d="M633.263 78.7695C629.238 73.7691 624.121 69.8972 618.361 67.4938C611.119 64.6228 603.704 62.2685 596.168 60.4464C590.593 59.1543 585.088 57.5421 579.677 55.6167C576.091 54.3555 572.802 52.285 570.037 49.5466C568.827 48.3081 567.878 46.8093 567.254 45.1503C566.63 43.4913 566.345 41.71 566.418 39.9247C566.368 37.0327 567.075 34.1828 568.459 31.6938C569.844 29.2048 571.851 27.1747 574.257 25.83C579.695 22.3157 586.898 20.5491 595.673 20.5491C604.939 20.536 614.142 22.1748 622.899 25.3976C623.942 25.8914 625.061 26.1782 626.2 26.2434C627.362 26.2797 628.517 26.0328 629.576 25.5214C630.635 25.0101 631.57 24.2476 632.309 23.2928C633.766 21.5562 634.565 19.3061 634.551 16.9784C634.654 15.0358 634.141 13.1129 633.094 11.518C632.047 9.92316 630.527 8.74885 628.778 8.18339C617.603 3.94043 605.807 1.85299 593.943 2.01926C585.398 1.79255 576.911 3.56981 569.084 7.22494C562.633 10.2338 557.122 15.1358 553.193 21.3573C549.6 27.2646 547.715 34.1651 547.773 41.2025C547.773 49.5277 549.998 56.2368 554.376 61.3484C558.629 66.272 563.892 70.0856 569.754 72.4927C577.202 75.4513 584.8 77.961 592.513 80.0099C599.434 81.8892 604.872 83.637 608.615 85.0277C611.949 86.2066 615.032 88.071 617.69 90.5151C618.783 91.4933 619.656 92.7208 620.243 94.1067C620.829 95.4926 621.116 97.0012 621.08 98.5209C621.08 111.676 611.687 118.084 592.354 118.084C580.86 118.157 569.482 115.64 558.967 110.699C557.75 110.121 556.432 109.827 555.1 109.834C553.944 109.8 552.795 110.033 551.731 110.516C550.668 111 549.715 111.722 548.938 112.634C547.557 114.218 546.731 116.261 546.599 118.417C546.467 120.574 547.038 122.713 548.214 124.474C549.214 126.066 550.633 127.308 552.293 128.045C565.441 134.036 579.606 137.08 593.908 136.99C602.025 137.143 610.086 135.539 617.602 132.273C624.021 129.498 629.603 124.902 633.739 118.986C637.559 113.356 639.588 106.574 639.53 99.6296C639.566 90.9473 637.447 83.9376 633.263 78.7695Z" fill="white"/>
</g>
<g filter="url(#filter3_d_618_81)">
<path d="M218.067 17.9553C218.516 16.6755 218.744 15.3216 218.742 13.9573C218.799 12.5185 218.583 11.0822 218.108 9.73189C217.632 8.38156 216.906 7.14426 215.971 6.09212C215 5.05934 213.835 4.25146 212.551 3.72057C211.266 3.18968 209.89 2.94749 208.511 3.0095C206.39 2.99998 204.325 3.7218 202.631 5.0645C200.948 6.38598 199.634 8.16096 198.83 10.2021L161.263 108.695L123.731 10.3143C122.926 8.26807 121.606 6.49166 119.912 5.17671C118.224 3.83541 116.165 3.11352 114.05 3.1217C112.669 3.06168 111.29 3.30481 110.003 3.83551C108.716 4.36621 107.547 5.17291 106.572 6.20433C105.644 7.26031 104.923 8.49851 104.45 9.8482C103.978 11.1979 103.763 12.6324 103.819 14.0695C103.816 15.4338 104.045 16.7877 104.494 18.0675L146.502 125.192C150.055 133.3 155.383 135 159.38 135H163.128C167.053 135 172.488 133.3 176.005 125.192L218.013 18.0488L218.067 17.9553Z" fill="white"/>
</g>
<g filter="url(#filter4_d_618_81)">
<path d="M314.958 120.077L272.615 12.9045V12.8109C269.032 4.70056 263.659 3 259.629 3H255.796C251.837 3 246.356 4.70056 242.81 12.8109L200.449 120.002C199.994 121.282 199.764 122.637 199.768 124.001C199.664 126.907 200.669 129.736 202.562 131.869C203.542 132.899 204.718 133.703 206.013 134.231C207.309 134.759 208.696 134.998 210.085 134.934C212.224 134.943 214.306 134.221 216.014 132.878C217.716 131.56 219.041 129.783 219.847 127.739L257.766 29.2934L280.496 88.4578L295.613 127.701C295.827 128.213 296.066 128.712 296.33 129.197C297.114 130.657 298.181 131.93 299.464 132.934C301.167 134.273 303.242 134.995 305.375 134.99C306.767 135.054 308.157 134.815 309.455 134.287C310.754 133.76 311.932 132.955 312.916 131.925C313.851 130.868 314.578 129.629 315.054 128.279C315.53 126.929 315.747 125.495 315.692 124.058C315.677 122.696 315.428 121.347 314.958 120.077Z" fill="white"/>
</g>
<g filter="url(#filter5_d_618_81)">
<path d="M121.189 120.127L79.1347 12.9087V12.8151C75.5784 4.70128 70.2438 3 66.2252 3H62.5088C58.5612 3 53.1378 4.70128 49.5992 12.8151L7.5454 120.052C7.09418 121.332 6.8653 122.687 6.86968 124.053C6.81489 125.491 7.0301 126.926 7.50301 128.277C7.97593 129.627 8.6973 130.866 9.62588 131.924C10.6021 132.954 11.7721 133.759 13.0612 134.287C14.3502 134.815 15.7299 135.054 17.112 134.99C19.2289 134.995 21.2895 134.273 22.9799 132.933C24.6694 131.611 25.9899 129.835 26.8031 127.792L64.287 29.3046L86.852 88.4756L101.86 127.736C102.124 128.382 102.433 129.007 102.784 129.606C103.548 130.887 104.531 132.009 105.683 132.914C107.373 134.254 109.434 134.977 111.551 134.971C112.933 135.036 114.313 134.797 115.602 134.269C116.891 133.741 118.061 132.936 119.037 131.905C119.966 130.848 120.687 129.608 121.16 128.258C121.633 126.907 121.848 125.472 121.793 124.034C121.81 122.705 121.605 121.382 121.189 120.127Z" fill="white"/>
</g>
<defs>
<filter id="filter0_d_618_81" x="316.697" y="0" width="104.952" height="147" filterUnits="userSpaceOnUse" color-interpolation-filters="sRGB">
<feFlood flood-opacity="0" result="BackgroundImageFix"/>
<feColorMatrix in="SourceAlpha" type="matrix" values="0 0 0 0 0 0 0 0 0 0 0 0 0 0 0 0 0 0 127 0" result="hardAlpha"/>
<feOffset dy="4"/>
<feGaussianBlur stdDeviation="3"/>
<feComposite in2="hardAlpha" operator="out"/>
<feColorMatrix type="matrix" values="0 0 0 0 0 0 0 0 0 0 0 0 0 0 0 0 0 0 0.4 0"/>
<feBlend mode="normal" in2="BackgroundImageFix" result="effect1_dropShadow_618_81"/>
<feBlend mode="normal" in="SourceGraphic" in2="effect1_dropShadow_618_81" result="shape"/>
</filter>
<filter id="filter1_d_618_81" x="422.642" y="1" width="115.946" height="146" filterUnits="userSpaceOnUse" color-interpolation-filters="sRGB">
<feFlood flood-opacity="0" result="BackgroundImageFix"/>
<feColorMatrix in="SourceAlpha" type="matrix" values="0 0 0 0 0 0 0 0 0 0 0 0 0 0 0 0 0 0 127 0" result="hardAlpha"/>
<feOffset dy="4"/>
<feGaussianBlur stdDeviation="3"/>
<feComposite in2="hardAlpha" operator="out"/>
<feColorMatrix type="matrix" values="0 0 0 0 0 0 0 0 0 0 0 0 0 0 0 0 0 0 0.4 0"/>
<feBlend mode="normal" in2="BackgroundImageFix" result="effect1_dropShadow_618_81"/>
<feBlend mode="normal" in="SourceGraphic" in2="effect1_dropShadow_618_81" result="shape"/>
</filter>
<filter id="filter2_d_618_81" x="540.58" y="0" width="104.952" height="147" filterUnits="userSpaceOnUse" color-interpolation-filters="sRGB">
<feFlood flood-opacity="0" result="BackgroundImageFix"/>
<feColorMatrix in="SourceAlpha" type="matrix" values="0 0 0 0 0 0 0 0 0 0 0 0 0 0 0 0 0 0 127 0" result="hardAlpha"/>
<feOffset dy="4"/>
<feGaussianBlur stdDeviation="3"/>
<feComposite in2="hardAlpha" operator="out"/>
<feColorMatrix type="matrix" values="0 0 0 0 0 0 0 0 0 0 0 0 0 0 0 0 0 0 0.4 0"/>
<feBlend mode="normal" in2="BackgroundImageFix" result="effect1_dropShadow_618_81"/>
<feBlend mode="normal" in="SourceGraphic" in2="effect1_dropShadow_618_81" result="shape"/>
</filter>
<filter id="filter3_d_618_81" x="97.8105" y="1" width="126.94" height="144" filterUnits="userSpaceOnUse" color-interpolation-filters="sRGB">
<feFlood flood-opacity="0" result="BackgroundImageFix"/>
<feColorMatrix in="SourceAlpha" type="matrix" values="0 0 0 0 0 0 0 0 0 0 0 0 0 0 0 0 0 0 127 0" result="hardAlpha"/>
<feOffset dy="4"/>
<feGaussianBlur stdDeviation="3"/>
<feComposite in2="hardAlpha" operator="out"/>
<feColorMatrix type="matrix" values="0 0 0 0 0 0 0 0 0 0 0 0 0 0 0 0 0 0 0.4 0"/>
<feBlend mode="normal" in2="BackgroundImageFix" result="effect1_dropShadow_618_81"/>
<feBlend mode="normal" in="SourceGraphic" in2="effect1_dropShadow_618_81" result="shape"/>
</filter>
<filter id="filter4_d_618_81" x="193.761" y="1" width="127.94" height="144" filterUnits="userSpaceOnUse" color-interpolation-filters="sRGB">
<feFlood flood-opacity="0" result="BackgroundImageFix"/>
<feColorMatrix in="SourceAlpha" type="matrix" values="0 0 0 0 0 0 0 0 0 0 0 0 0 0 0 0 0 0 127 0" result="hardAlpha"/>
<feOffset dy="4"/>
<feGaussianBlur stdDeviation="3"/>
<feComposite in2="hardAlpha" operator="out"/>
<feColorMatrix type="matrix" values="0 0 0 0 0 0 0 0 0 0 0 0 0 0 0 0 0 0 0.4 0"/>
<feBlend mode="normal" in2="BackgroundImageFix" result="effect1_dropShadow_618_81"/>
<feBlend mode="normal" in="SourceGraphic" in2="effect1_dropShadow_618_81" result="shape"/>
</filter>
<filter id="filter5_d_618_81" x="0.861328" y="1" width="126.94" height="144" filterUnits="userSpaceOnUse" color-interpolation-filters="sRGB">
<feFlood flood-opacity="0" result="BackgroundImageFix"/>
<feColorMatrix in="SourceAlpha" type="matrix" values="0 0 0 0 0 0 0 0 0 0 0 0 0 0 0 0 0 0 127 0" result="hardAlpha"/>
<feOffset dy="4"/>
<feGaussianBlur stdDeviation="3"/>
<feComposite in2="hardAlpha" operator="out"/>
<feColorMatrix type="matrix" values="0 0 0 0 0 0 0 0 0 0 0 0 0 0 0 0 0 0 0.4 0"/>
<feBlend mode="normal" in2="BackgroundImageFix" result="effect1_dropShadow_618_81"/>
<feBlend mode="normal" in="SourceGraphic" in2="effect1_dropShadow_618_81" result="shape"/>
</filter>
</defs>
</svg>
