<svg width="60" height="48" viewBox="0 0 60 48" fill="none" xmlns="http://www.w3.org/2000/svg">
<path d="M56.4012 0.941709C50.7009 1.26665 39.3712 2.44937 32.3769 6.74981C31.8943 7.04654 31.6207 7.57416 31.6207 8.12582V46.1433C31.6207 47.3501 32.9345 48.1128 34.0423 47.5528C41.2383 43.9148 51.6454 42.9222 56.7912 42.6505C58.5481 42.5575 59.9139 41.1429 59.9139 39.4471V4.14928C59.9149 2.29892 58.3172 0.833049 56.4012 0.941709ZM27.5369 6.74981C20.5437 2.44937 9.214 1.26769 3.51376 0.941709C1.59773 0.833049 0 2.29892 0 4.14928V39.4482C0 41.145 1.36577 42.5596 3.12265 42.6516C8.27055 42.9232 18.6828 43.9168 25.8789 47.557C26.9836 48.1159 28.2932 47.3543 28.2932 46.1506V8.10702C28.2932 7.55431 28.0206 7.04758 27.5369 6.74981Z" fill="#7DC143"/>
</svg>
