<svg width="24" height="19" viewBox="0 0 24 19" fill="none" xmlns="http://www.w3.org/2000/svg">
<path d="M7.51825 9.21212C8.74531 9.21212 9.92211 8.72684 10.7898 7.86304C11.6574 6.99923 12.1449 5.82766 12.1449 4.60606C12.1449 3.38446 11.6574 2.21289 10.7898 1.34908C9.92211 0.48528 8.74531 0 7.51825 0C6.2912 0 5.1144 0.48528 4.24674 1.34908C3.37908 2.21289 2.89164 3.38446 2.89164 4.60606C2.89164 5.82766 3.37908 6.99923 4.24674 7.86304C5.1144 8.72684 6.2912 9.21212 7.51825 9.21212V9.21212ZM17.9281 9.21212C18.8484 9.21212 19.731 8.84816 20.3818 8.20031C21.0325 7.55246 21.3981 6.67378 21.3981 5.75758C21.3981 4.84137 21.0325 3.9627 20.3818 3.31484C19.731 2.66699 18.8484 2.30303 17.9281 2.30303C17.0079 2.30303 16.1253 2.66699 15.4745 3.31484C14.8238 3.9627 14.4582 4.84137 14.4582 5.75758C14.4582 6.67378 14.8238 7.55246 15.4745 8.20031C16.1253 8.84816 17.0079 9.21212 17.9281 9.21212ZM2.16873 10.9394C1.59354 10.9394 1.04192 11.1669 0.635205 11.5718C0.22849 11.9767 0 12.5259 0 13.0985V13.8182C0 13.8182 0 19 7.51825 19C15.0365 19 15.0365 13.8182 15.0365 13.8182V13.0985C15.0365 12.5259 14.808 11.9767 14.4013 11.5718C13.9946 11.1669 13.443 10.9394 12.8678 10.9394H2.16873ZM14.848 17.324C15.6438 17.6452 16.6518 17.8485 17.9276 17.8485C24 17.8485 24 13.2424 24 13.2424V13.0985C24 12.526 23.7716 11.9769 23.365 11.572C22.9584 11.1671 22.4069 10.9395 21.8319 10.9394H15.3876C15.9076 11.5395 16.1932 12.3059 16.192 13.0985V13.8441L16.1914 13.8769C16.188 13.9887 16.1803 14.1003 16.1683 14.2114C16.1396 14.4684 16.0931 14.7231 16.0289 14.9737C15.8099 15.8327 15.4071 16.6344 14.848 17.324V17.324Z" fill="#F6303F"/>
</svg>
