<svg width="21" height="22" viewBox="0 0 21 22" fill="none" xmlns="http://www.w3.org/2000/svg">
<path d="M13.6999 3.08921C10.5702 -0.0404775 5.47644 -0.0404775 2.34675 3.08921C-0.782251 6.21957 -0.782251 11.3127 2.34675 14.443C4.89272 16.9884 8.73516 17.4577 11.7651 15.8613C12.1766 15.6444 12.7319 15.874 13.0608 16.2029L17.6186 20.7608C18.2828 21.4236 19.3561 21.4236 20.0169 20.7608C20.6805 20.0972 20.6805 19.0239 20.0169 18.3624L15.4591 13.8033C15.1302 13.4753 14.901 12.9211 15.1177 12.5102C16.7161 9.47964 16.2469 5.63682 13.6999 3.08921ZM12.2609 13.0041C9.92435 15.3406 6.12164 15.3406 3.78574 13.0041C1.45052 10.6675 1.45052 6.86545 3.78574 4.52887C6.12164 2.19298 9.92435 2.19298 12.2609 4.52887C14.5975 6.86545 14.5975 10.6675 12.2609 13.0041Z" fill="#D16FFF"/>
</svg>
